<mxfile host="app.diagrams.net" agent="Mozilla/5.0 (Windows NT 10.0; Win64; x64) AppleWebKit/537.36 (KHTML, like Gecko) Chrome/131.0.0.0 Safari/537.36" version="24.8.9">
  <diagram name="第 1 页" id="q4Xr1My0I-iD6dUz-8R3">
    <mxGraphModel dx="794" dy="412" grid="1" gridSize="10" guides="1" tooltips="1" connect="1" arrows="1" fold="1" page="1" pageScale="1" pageWidth="827" pageHeight="1169" math="0" shadow="0">
      <root>
        <mxCell id="0" />
        <mxCell id="1" parent="0" />
        <mxCell id="FuVlZmLgShEflpSIbkMq-4" value="" style="whiteSpace=wrap;html=1;aspect=fixed;fillColor=#9b6e64;strokeColor=none;" vertex="1" parent="1">
          <mxGeometry x="153" y="290" width="10" height="10" as="geometry" />
        </mxCell>
        <mxCell id="FuVlZmLgShEflpSIbkMq-5" value="&lt;font style=&quot;font-size: 14px;&quot; face=&quot;Times New Roman&quot;&gt;NKTCM&lt;/font&gt;" style="text;html=1;align=center;verticalAlign=middle;whiteSpace=wrap;rounded=0;" vertex="1" parent="1">
          <mxGeometry x="163" y="280" width="70" height="30" as="geometry" />
        </mxCell>
        <mxCell id="FuVlZmLgShEflpSIbkMq-6" value="" style="whiteSpace=wrap;html=1;aspect=fixed;fillColor=#eda300;strokeColor=none;" vertex="1" parent="1">
          <mxGeometry x="254" y="290" width="10" height="10" as="geometry" />
        </mxCell>
        <mxCell id="FuVlZmLgShEflpSIbkMq-7" value="&lt;font style=&quot;font-size: 14px;&quot; face=&quot;Times New Roman&quot;&gt;WKTCM&lt;/font&gt;" style="text;html=1;align=center;verticalAlign=middle;whiteSpace=wrap;rounded=0;" vertex="1" parent="1">
          <mxGeometry x="264" y="280" width="70" height="30" as="geometry" />
        </mxCell>
        <mxCell id="FuVlZmLgShEflpSIbkMq-9" value="" style="whiteSpace=wrap;html=1;aspect=fixed;fillColor=#839a99;strokeColor=none;" vertex="1" parent="1">
          <mxGeometry x="353" y="290" width="10" height="10" as="geometry" />
        </mxCell>
        <mxCell id="FuVlZmLgShEflpSIbkMq-10" value="&lt;font style=&quot;font-size: 14px;&quot; face=&quot;Times New Roman&quot;&gt;CSMST&lt;/font&gt;" style="text;html=1;align=center;verticalAlign=middle;whiteSpace=wrap;rounded=0;" vertex="1" parent="1">
          <mxGeometry x="363" y="280" width="70" height="30" as="geometry" />
        </mxCell>
        <mxCell id="FuVlZmLgShEflpSIbkMq-12" value="" style="whiteSpace=wrap;html=1;aspect=fixed;fillColor=#354c68;strokeColor=none;" vertex="1" parent="1">
          <mxGeometry x="453" y="290" width="10" height="10" as="geometry" />
        </mxCell>
        <mxCell id="FuVlZmLgShEflpSIbkMq-13" value="&lt;font face=&quot;Times New Roman&quot;&gt;&lt;span style=&quot;font-size: 14px;&quot;&gt;Ours (without attributes)&lt;/span&gt;&lt;/font&gt;" style="text;html=1;align=center;verticalAlign=middle;whiteSpace=wrap;rounded=0;" vertex="1" parent="1">
          <mxGeometry x="463" y="280" width="160" height="30" as="geometry" />
        </mxCell>
        <mxCell id="FuVlZmLgShEflpSIbkMq-14" value="" style="whiteSpace=wrap;html=1;aspect=fixed;fillColor=#a51a00;strokeColor=none;" vertex="1" parent="1">
          <mxGeometry x="643" y="290" width="10" height="10" as="geometry" />
        </mxCell>
        <mxCell id="FuVlZmLgShEflpSIbkMq-15" value="&lt;font face=&quot;Times New Roman&quot;&gt;&lt;span style=&quot;font-size: 14px;&quot;&gt;Ours (fused attributes)&lt;/span&gt;&lt;/font&gt;" style="text;html=1;align=center;verticalAlign=middle;whiteSpace=wrap;rounded=0;" vertex="1" parent="1">
          <mxGeometry x="653" y="280" width="160" height="30" as="geometry" />
        </mxCell>
      </root>
    </mxGraphModel>
  </diagram>
</mxfile>
